<svg width="25" height="24" viewBox="0 0 25 24" fill="none" xmlns="http://www.w3.org/2000/svg">
<path d="M8.79416 8.99217C8.51107 8.99217 8.27394 8.89626 8.08277 8.70442C7.8916 8.51259 7.79569 8.27546 7.79502 7.99304C7.79435 7.71061 7.89027 7.47348 8.08277 7.28165C8.27527 7.08981 8.5124 6.9939 8.79416 6.9939H20.7838C21.0669 6.9939 21.3044 7.08981 21.4962 7.28165C21.688 7.47348 21.7836 7.71061 21.783 7.99304C21.7823 8.27546 21.6864 8.51292 21.4952 8.70542C21.304 8.89792 21.0669 8.99351 20.7838 8.99217H8.79416ZM8.79416 12.9887C8.51107 12.9887 8.27394 12.8928 8.08277 12.701C7.8916 12.5091 7.79569 12.272 7.79502 11.9896C7.79435 11.7072 7.89027 11.47 8.08277 11.2782C8.27527 11.0864 8.5124 10.9905 8.79416 10.9905H20.7838C21.0669 10.9905 21.3044 11.0864 21.4962 11.2782C21.688 11.47 21.7836 11.7072 21.783 11.9896C21.7823 12.272 21.6864 12.5095 21.4952 12.702C21.304 12.8945 21.0669 12.9901 20.7838 12.9887H8.79416ZM8.79416 16.9853C8.51107 16.9853 8.27394 16.8894 8.08277 16.6975C7.8916 16.5057 7.79569 16.2686 7.79502 15.9861C7.79435 15.7037 7.89027 15.4666 8.08277 15.2748C8.27527 15.0829 8.5124 14.987 8.79416 14.987H20.7838C21.0669 14.987 21.3044 15.0829 21.4962 15.2748C21.688 15.4666 21.7836 15.7037 21.783 15.9861C21.7823 16.2686 21.6864 16.506 21.4952 16.6985C21.304 16.891 21.0669 16.9866 20.7838 16.9853H8.79416ZM4.7976 8.99217C4.51451 8.99217 4.27739 8.89626 4.08622 8.70442C3.89505 8.51259 3.79913 8.27546 3.79847 7.99304C3.7978 7.71061 3.89372 7.47348 4.08622 7.28165C4.27872 7.08981 4.51585 6.9939 4.7976 6.9939C5.07936 6.9939 5.31682 7.08981 5.50999 7.28165C5.70316 7.47348 5.79874 7.71061 5.79674 7.99304C5.79474 8.27546 5.69883 8.51292 5.50899 8.70542C5.31915 8.89792 5.08203 8.99351 4.7976 8.99217ZM4.7976 12.9887C4.51451 12.9887 4.27739 12.8928 4.08622 12.701C3.89505 12.5091 3.79913 12.272 3.79847 11.9896C3.7978 11.7072 3.89372 11.47 4.08622 11.2782C4.27872 11.0864 4.51585 10.9905 4.7976 10.9905C5.07936 10.9905 5.31682 11.0864 5.50999 11.2782C5.70316 11.47 5.79874 11.7072 5.79674 11.9896C5.79474 12.272 5.69883 12.5095 5.50899 12.702C5.31915 12.8945 5.08203 12.9901 4.7976 12.9887ZM4.7976 16.9853C4.51451 16.9853 4.27739 16.8894 4.08622 16.6975C3.89505 16.5057 3.79913 16.2686 3.79847 15.9861C3.7978 15.7037 3.89372 15.4666 4.08622 15.2748C4.27872 15.0829 4.51585 14.987 4.7976 14.987C5.07936 14.987 5.31682 15.0829 5.50999 15.2748C5.70316 15.4666 5.79874 15.7037 5.79674 15.9861C5.79474 16.2686 5.69883 16.506 5.50899 16.6985C5.31915 16.891 5.08203 16.9866 4.7976 16.9853Z" fill="#7598B9"/>
</svg>
