<svg width="26" height="27" viewBox="0 0 26 27" fill="none" xmlns="http://www.w3.org/2000/svg">
<path d="M13 1.78223C12.138 1.78223 11.3114 2.12464 10.7019 2.73413C10.0924 3.34362 9.75 4.17027 9.75 5.03223V21.2822C9.75 22.1442 10.0924 22.9708 10.7019 23.5803C11.3114 24.1898 12.138 24.5322 13 24.5322C13.862 24.5322 14.6886 24.1898 15.2981 23.5803C15.9076 22.9708 16.25 22.1442 16.25 21.2822V5.03223C16.25 4.17027 15.9076 3.34362 15.2981 2.73413C14.6886 2.12464 13.862 1.78223 13 1.78223ZM14.625 5.03223V21.2822C14.625 21.7132 14.4538 22.1265 14.149 22.4313C13.8443 22.736 13.431 22.9072 13 22.9072C12.569 22.9072 12.1557 22.736 11.851 22.4313C11.5462 22.1265 11.375 21.7132 11.375 21.2822V5.03223C11.375 4.60125 11.5462 4.18792 11.851 3.88318C12.1557 3.57843 12.569 3.40723 13 3.40723C13.431 3.40723 13.8443 3.57843 14.149 3.88318C14.4538 4.18792 14.625 4.60125 14.625 5.03223ZM4.875 11.5322C4.01305 11.5322 3.1864 11.8746 2.5769 12.4841C1.96741 13.0936 1.625 13.9203 1.625 14.7822V21.2822C1.625 22.1442 1.96741 22.9708 2.5769 23.5803C3.1864 24.1898 4.01305 24.5322 4.875 24.5322C5.73695 24.5322 6.5636 24.1898 7.1731 23.5803C7.78259 22.9708 8.125 22.1442 8.125 21.2822V14.7822C8.125 13.9203 7.78259 13.0936 7.1731 12.4841C6.5636 11.8746 5.73695 11.5322 4.875 11.5322ZM6.5 21.2822C6.5 21.7132 6.3288 22.1265 6.02405 22.4313C5.7193 22.736 5.30598 22.9072 4.875 22.9072C4.44402 22.9072 4.0307 22.736 3.72595 22.4313C3.4212 22.1265 3.25 21.7132 3.25 21.2822V14.7822C3.25 14.3512 3.4212 13.9379 3.72595 13.6332C4.0307 13.3284 4.44402 13.1572 4.875 13.1572C5.30598 13.1572 5.7193 13.3284 6.02405 13.6332C6.3288 13.9379 6.5 14.3512 6.5 14.7822V21.2822ZM17.875 11.5322C17.875 10.6703 18.2174 9.84362 18.8269 9.23413C19.4364 8.62464 20.263 8.28223 21.125 8.28223C21.987 8.28223 22.8136 8.62464 23.4231 9.23413C24.0326 9.84362 24.375 10.6703 24.375 11.5322V21.2822C24.375 22.1442 24.0326 22.9708 23.4231 23.5803C22.8136 24.1898 21.987 24.5322 21.125 24.5322C20.263 24.5322 19.4364 24.1898 18.8269 23.5803C18.2174 22.9708 17.875 22.1442 17.875 21.2822V11.5322ZM22.75 11.5322C22.75 11.1012 22.5788 10.6879 22.274 10.3832C21.9693 10.0784 21.556 9.90723 21.125 9.90723C20.694 9.90723 20.2807 10.0784 19.976 10.3832C19.6712 10.6879 19.5 11.1012 19.5 11.5322V21.2822C19.5 21.7132 19.6712 22.1265 19.976 22.4313C20.2807 22.736 20.694 22.9072 21.125 22.9072C21.556 22.9072 21.9693 22.736 22.274 22.4313C22.5788 22.1265 22.75 21.7132 22.75 21.2822V11.5322Z" fill="white"/>
</svg>
