<svg width="32" height="33" viewBox="0 0 32 33" fill="none" xmlns="http://www.w3.org/2000/svg">
<path d="M10.9301 19.8175C11.2424 20.0403 11.6167 20.1599 12.0004 20.1596C12.3841 20.1592 12.7581 20.0389 13.0701 19.8155C13.3819 19.5824 13.6189 19.2633 13.7521 18.8975L14.4461 16.7635C14.6125 16.2607 14.8941 15.8038 15.2685 15.4291C15.6428 15.0544 16.0994 14.7724 16.6021 14.6055L18.7741 13.8995C19.1383 13.7688 19.4523 13.527 19.6716 13.2082C19.891 12.8894 20.0046 12.5097 19.9964 12.1228C19.9882 11.736 19.8587 11.3614 19.626 11.0522C19.3934 10.7429 19.0695 10.5146 18.7001 10.3995L16.5621 9.70747C16.0589 9.54127 15.6016 9.25977 15.2266 8.88544C14.8515 8.5111 14.5692 8.0543 14.4021 7.55147L13.6961 5.38347C13.5679 5.02545 13.332 4.71593 13.0208 4.49746C12.7096 4.27899 12.3383 4.16231 11.9581 4.16347C11.5724 4.16183 11.1959 4.28143 10.8819 4.50537C10.5679 4.72932 10.3322 5.04628 10.2081 5.41147L9.49606 7.59147C9.32887 8.07939 9.05348 8.52318 8.6905 8.88962C8.32753 9.25605 7.88638 9.53565 7.40006 9.70747L5.23206 10.4095C4.86988 10.5375 4.55664 10.7753 4.33601 11.0897C4.11538 11.4042 3.99833 11.7796 4.0012 12.1637C4.00406 12.5479 4.12668 12.9215 4.35197 13.2327C4.57727 13.5438 4.89401 13.7769 5.25806 13.8995L7.39206 14.5935C7.89589 14.7618 8.35358 15.0452 8.72886 15.4211C9.10413 15.7971 9.38666 16.2553 9.55406 16.7595L10.2581 18.9195C10.3841 19.2795 10.6201 19.5935 10.9321 19.8155M8.01406 12.6835L6.30406 12.1535L8.03206 11.5915C8.82123 11.3196 9.53662 10.8684 10.1221 10.2735C10.7061 9.67347 11.1461 8.95347 11.4101 8.16147L11.9401 6.44347L12.5001 8.16747C12.7653 8.96773 13.2142 9.69477 13.8109 10.2904C14.4075 10.886 15.1353 11.3336 15.9361 11.5975L17.6961 12.1355L15.9761 12.6955C15.1747 12.9599 14.4464 13.4084 13.8497 14.0051C13.253 14.6019 12.8045 15.3301 12.5401 16.1315L12.0101 17.8455L11.4521 16.1275C11.1882 15.3248 10.7397 14.5952 10.1426 13.9974C9.54552 13.3996 8.81645 12.9482 8.01406 12.6835ZM21.0681 27.8595C21.3397 28.0526 21.6648 28.1561 21.9981 28.1555C22.3339 28.1521 22.6604 28.0444 22.9323 27.8473C23.2043 27.6503 23.4083 27.3736 23.5161 27.0555L24.0121 25.5315C24.1181 25.2155 24.2981 24.9255 24.5321 24.6895C24.7661 24.4535 25.0561 24.2755 25.3721 24.1715L26.9161 23.6675C27.2354 23.558 27.5119 23.3503 27.7061 23.0741C27.9002 22.7979 28.002 22.4673 27.9969 22.1298C27.9918 21.7922 27.8801 21.4649 27.6777 21.1947C27.4753 20.9245 27.1926 20.7253 26.8701 20.6255L25.3421 20.1275C25.0261 20.0216 24.739 19.8442 24.5031 19.6089C24.2671 19.3737 24.0888 19.0871 23.9821 18.7715L23.4781 17.2235C23.3696 16.9056 23.1639 16.6298 22.89 16.4354C22.6161 16.2409 22.288 16.1376 21.9521 16.14C21.6162 16.1425 21.2897 16.2505 21.0186 16.4489C20.7476 16.6474 20.5459 16.926 20.4421 17.2455L19.9481 18.7695C19.8462 19.0828 19.6733 19.3683 19.443 19.6039C19.2126 19.8394 18.931 20.0186 18.6201 20.1275L17.0681 20.6335C16.8331 20.7151 16.6205 20.8505 16.447 21.0287C16.2735 21.2069 16.144 21.4231 16.0686 21.6602C15.9933 21.8972 15.9743 22.1486 16.0131 22.3942C16.0519 22.6399 16.1474 22.8732 16.2921 23.0755C16.4901 23.3555 16.7701 23.5655 17.0921 23.6755L18.6181 24.1695C18.935 24.2763 19.2229 24.4553 19.4589 24.6924C19.6949 24.9294 19.8726 25.218 19.9781 25.5355L20.4841 27.0835C20.5936 27.3964 20.7977 27.6676 21.0681 27.8595ZM19.2401 22.2735L18.8841 22.1555L19.2521 22.0275C19.8586 21.8175 20.4086 21.4707 20.8595 21.0139C21.3104 20.5571 21.65 20.0027 21.8521 19.3935L21.9681 19.0375L22.0881 19.3995C22.2923 20.0124 22.6364 20.5694 23.0933 21.0263C23.5501 21.4831 24.1071 21.8273 24.7201 22.0315L25.1101 22.1575L24.7501 22.2755C24.1357 22.4804 23.5776 22.826 23.1203 23.2846C22.663 23.7433 22.3191 24.3024 22.1161 24.9175L21.9981 25.2795L21.8821 24.9175C21.6801 24.3007 21.3359 23.74 20.8773 23.2807C20.4187 22.8214 19.8586 22.4764 19.2421 22.2735" fill="white"/>
</svg>
