<svg width="21" height="22" viewBox="0 0 21 22" fill="none" xmlns="http://www.w3.org/2000/svg">
<path fill-rule="evenodd" clip-rule="evenodd" d="M18.1935 15.1669V19.0369C18.1856 19.6825 17.9244 20.2989 17.466 20.7535C17.0077 21.2082 16.389 21.4643 15.7435 21.4669H11.8835C11.564 21.4682 11.2474 21.4063 10.952 21.2846C10.6566 21.163 10.3882 20.9841 10.1623 20.7581C9.93637 20.5322 9.75743 20.2639 9.63578 19.9684C9.51413 19.6729 9.45218 19.3564 9.4535 19.0369V15.1669C9.45608 14.5213 9.7123 13.9028 10.1669 13.4444C10.6215 12.986 11.238 12.7247 11.8835 12.7169H15.7535C16.4017 12.7235 17.022 12.9816 17.4835 13.4369C17.9396 13.8971 18.1949 14.5189 18.1935 15.1669Z" fill="#203E5B"/>
<path d="M9.22199 5.68204V9.56207C9.22199 9.88339 9.15855 10.2014 9.0353 10.4981C8.91205 10.7949 8.73143 11.0642 8.50379 11.291C8.27616 11.5177 8.00599 11.6972 7.70881 11.8192C7.41162 11.9413 7.09325 12.0034 6.77199 12.0021H2.91199C2.59159 12.004 2.27409 11.9413 1.97854 11.8175C1.68299 11.6938 1.41546 11.5117 1.19199 11.2821C0.965101 11.057 0.785429 10.7891 0.663508 10.4937C0.541588 10.1983 0.479874 9.88164 0.481986 9.56207V5.69205C0.481981 5.04654 0.737678 4.4276 1.19311 3.97022C1.64853 3.51285 2.26659 3.25468 2.91199 3.25203H6.78199C7.10205 3.25234 7.41887 3.31612 7.71412 3.43972C8.00936 3.56333 8.27715 3.74421 8.50199 3.97204C8.72948 4.19505 8.9103 4.46102 9.03391 4.75465C9.15753 5.04828 9.22146 5.36345 9.22199 5.68204Z" fill="#203E5B"/>
<path fill-rule="evenodd" clip-rule="evenodd" d="M20.964 6.31004V2.44001C20.9588 1.7944 20.7 1.17697 20.2436 0.720441C19.7871 0.263908 19.1695 0.00522789 18.524 0H14.654C14.3339 0.000307563 14.0171 0.0640843 13.7219 0.187693C13.4266 0.311301 13.1588 0.492177 12.934 0.720004C12.7053 0.944201 12.5238 1.21179 12.4001 1.50723C12.2765 1.80267 12.2132 2.11973 12.214 2.44001V6.31004C12.2128 6.63097 12.2749 6.94885 12.3967 7.24576C12.5185 7.54266 12.6977 7.8125 12.924 8.04004C13.3871 8.49167 14.0072 8.74609 14.654 8.75005H18.534C19.1778 8.74222 19.7928 8.48239 20.2471 8.02613C20.7014 7.56988 20.9588 6.95394 20.964 6.31004Z" fill="#203E5B"/>
</svg>
