<svg width="48" height="48" viewBox="0 0 48 48" fill="none" xmlns="http://www.w3.org/2000/svg">
<rect width="48" height="48" rx="24" fill="white"/>
<path d="M23.9999 18.2144C23.9999 18.2144 23.9999 18.2144 22.8418 16.7144C21.5009 14.9744 19.5199 13.7144 17.1428 13.7144C13.3485 13.7144 10.2856 16.7294 10.2856 20.4644C10.2856 21.8594 10.7123 23.1494 11.4437 24.2144C12.678 26.0294 23.9999 37.7144 23.9999 37.7144M23.9999 18.2144C23.9999 18.2144 23.9999 18.2144 25.158 16.7144C26.499 14.9744 28.4799 13.7144 30.8571 13.7144C34.6514 13.7144 37.7142 16.7294 37.7142 20.4644C37.7142 21.8594 37.2875 23.1494 36.5561 24.2144C35.3218 26.0294 23.9999 37.7144 23.9999 37.7144" stroke="#203E5B" stroke-width="2" stroke-linecap="round" stroke-linejoin="round"/>
</svg>
