<svg width="37" height="37" viewBox="0 0 37 37" fill="none" xmlns="http://www.w3.org/2000/svg">
<path d="M27.7497 20.0387H20.0414V27.747C20.0414 28.1559 19.879 28.548 19.5898 28.8371C19.3007 29.1262 18.9086 29.2887 18.4997 29.2887C18.0908 29.2887 17.6987 29.1262 17.4096 28.8371C17.1205 28.548 16.9581 28.1559 16.9581 27.747V20.0387H9.24972C8.84084 20.0387 8.44872 19.8762 8.1596 19.5871C7.87048 19.298 7.70805 18.9059 7.70805 18.497C7.70805 18.0881 7.87048 17.696 8.1596 17.4069C8.44872 17.1177 8.84084 16.9553 9.24972 16.9553H16.9581V9.24699C16.9581 8.83811 17.1205 8.44598 17.4096 8.15687C17.6987 7.86775 18.0908 7.70532 18.4997 7.70532C18.9086 7.70532 19.3007 7.86775 19.5898 8.15687C19.879 8.44598 20.0414 8.83811 20.0414 9.24699V16.9553H27.7497C28.1586 16.9553 28.5507 17.1177 28.8398 17.4069C29.129 17.696 29.2914 18.0881 29.2914 18.497C29.2914 18.9059 29.129 19.298 28.8398 19.5871C28.5507 19.8762 28.1586 20.0387 27.7497 20.0387Z" fill="#D7ECFE"/>
</svg>
