<svg width="17" height="17" viewBox="0 0 17 17" fill="none" xmlns="http://www.w3.org/2000/svg">
<g clip-path="url(#clip0_274_622)">
<path d="M4.21234 7.47821C4.2821 7.47821 4.35992 7.48894 4.44578 7.51041C4.53164 7.53187 4.61751 7.56139 4.70337 7.59895C4.78924 7.63652 4.8751 7.6714 4.96096 7.7036C5.04683 7.7358 5.12464 7.768 5.1944 7.8002L5.06561 7.8163C5.02268 7.82166 4.97706 7.82435 4.92876 7.82435C4.83753 7.82435 4.75435 7.81093 4.67922 7.7841C4.60409 7.75727 4.53433 7.72238 4.46993 7.67945C4.40553 7.63652 4.34114 7.60432 4.27674 7.58286C4.21234 7.56139 4.15331 7.54529 4.09964 7.53456C4.04598 7.53456 3.99768 7.54529 3.95475 7.56676C3.91182 7.58822 3.86889 7.61237 3.82595 7.6392C3.82595 7.61774 3.80717 7.607 3.76961 7.607C3.80717 7.56944 3.87694 7.53992 3.9789 7.51846C4.08086 7.49699 4.15868 7.48358 4.21234 7.47821ZM5.29905 7.84045C5.51907 7.84045 5.72032 7.87801 5.90278 7.95314C5.82765 7.97997 5.75252 8.00144 5.67739 8.01754C5.60226 8.03364 5.52444 8.04437 5.44394 8.04974C5.33662 8.04974 5.24002 8.039 5.15416 8.01754C5.18099 7.97461 5.20782 7.94777 5.23465 7.93704C5.26148 7.92631 5.28295 7.89411 5.29905 7.84045ZM8.46258 0.370324C9.21925 0.370324 9.94641 0.469603 10.6441 0.668163C11.3417 0.866722 11.9964 1.14309 12.6082 1.49728C13.22 1.85147 13.7781 2.28347 14.2825 2.79328C14.787 3.3031 15.2163 3.85853 15.5705 4.45957C15.9247 5.06062 16.2037 5.71532 16.4076 6.4237C16.6116 7.13207 16.7108 7.86191 16.7055 8.61322C16.7055 9.36989 16.6062 10.097 16.4076 10.7947C16.2091 11.4923 15.9327 12.147 15.5785 12.7588C15.2243 13.3706 14.7923 13.9287 14.2825 14.4332C13.7727 14.9376 13.2173 15.3669 12.6162 15.7211C12.0152 16.0753 11.3605 16.3543 10.6521 16.5583C9.94373 16.7622 9.21389 16.8615 8.46258 16.8561C7.70591 16.8561 6.97875 16.7568 6.28111 16.5583C5.58347 16.3597 4.92876 16.0833 4.31699 15.7292C3.70521 15.375 3.1471 14.943 2.64265 14.4332C2.1382 13.9233 1.70888 13.3679 1.3547 12.7669C1.00051 12.1658 0.721453 11.5111 0.517528 10.8027C0.313602 10.0944 0.214322 9.36452 0.219689 8.61322C0.219689 7.85654 0.318968 7.12939 0.517528 6.43175C0.716087 5.73411 0.99246 5.0794 1.34665 4.46762C1.70083 3.85584 2.13283 3.29773 2.64265 2.79328C3.15246 2.28884 3.70789 1.85952 4.30894 1.50533C4.90998 1.15114 5.56469 0.872088 6.27306 0.668163C6.98144 0.464237 7.71128 0.364957 8.46258 0.370324ZM14.5965 4.83791C14.5213 4.71984 14.4462 4.60715 14.3711 4.49982C14.2959 4.39249 14.2181 4.28248 14.1376 4.16978C14.1269 4.21808 14.1135 4.25296 14.0974 4.27443C14.0813 4.29589 14.0705 4.34419 14.0652 4.41932C14.0652 4.46762 14.084 4.51324 14.1215 4.55617C14.1591 4.5991 14.2074 4.64203 14.2664 4.68496C14.3254 4.72789 14.3845 4.76009 14.4435 4.78156C14.5025 4.80303 14.5535 4.82181 14.5965 4.83791ZM14.041 4.04904C14.041 4.09197 14.033 4.12148 14.0169 4.13758H14.0652C14.0866 4.13758 14.1027 4.14027 14.1135 4.14563L14.041 4.04904ZM8.46258 15.8257C9.07436 15.8257 9.67272 15.7479 10.2577 15.5923C10.8426 15.4367 11.3954 15.2167 11.9159 14.9322C12.4365 14.6478 12.9194 14.299 13.3648 13.8858C13.8103 13.4726 14.1993 13.011 14.5321 12.5012C14.4623 12.3402 14.3952 12.1766 14.3308 12.0102C14.2664 11.8438 14.2342 11.6721 14.2342 11.495C14.2342 11.3018 14.2423 11.1462 14.2584 11.0281C14.2745 10.9101 14.2932 10.8054 14.3147 10.7142C14.3362 10.623 14.3469 10.5451 14.3469 10.4807C14.3469 10.4163 14.3389 10.3332 14.3228 10.2312C14.3067 10.1292 14.261 10.0192 14.1859 9.90117C14.1108 9.78311 14.0115 9.61675 13.8881 9.40209C13.8934 9.36452 13.9015 9.31354 13.9122 9.24914C13.923 9.18475 13.9337 9.11766 13.9444 9.0479C13.9552 8.97814 13.9578 8.91374 13.9525 8.85471C13.9471 8.79568 13.9337 8.7447 13.9122 8.70176C13.7727 8.68566 13.6278 8.65615 13.4775 8.61322C13.3273 8.57028 13.1931 8.50589 13.0751 8.42002L13.1234 8.37978C13.0536 8.39587 12.9838 8.41734 12.9141 8.44417C12.8443 8.47101 12.7772 8.50052 12.7128 8.53272C12.6484 8.56492 12.5787 8.58638 12.5035 8.59712C12.4284 8.60785 12.356 8.61858 12.2862 8.62932L12.1574 8.61322L12.1815 8.55687C12.1064 8.57833 12.0259 8.60517 11.9401 8.63737C11.8542 8.66956 11.771 8.68566 11.6905 8.68566C11.6368 8.68566 11.559 8.66688 11.4571 8.62932C11.3551 8.59175 11.2531 8.54614 11.1512 8.49247C11.0492 8.43881 10.958 8.37978 10.8775 8.31538C10.797 8.25098 10.7567 8.18927 10.7567 8.13023L10.7728 8.10609C10.746 8.07389 10.7111 8.04437 10.6682 8.01754C10.6253 7.99071 10.585 7.96387 10.5475 7.93704C10.5099 7.91021 10.475 7.88069 10.4428 7.8485C10.4106 7.8163 10.3972 7.77873 10.4026 7.7358L10.4911 7.66335L10.306 7.6392L10.2416 7.39771C10.2523 7.42454 10.2764 7.43528 10.314 7.42991C10.3516 7.42454 10.3811 7.41381 10.4026 7.39771L10.1128 7.24477L10.314 6.72959C10.2389 6.45053 10.2201 6.23587 10.2577 6.08561C10.2952 5.93535 10.3677 5.81192 10.475 5.71532C10.5823 5.61873 10.7004 5.52213 10.8292 5.42554C10.958 5.32894 11.0895 5.19746 11.2236 5.0311L11.1995 4.9345L11.7308 4.29053L11.8515 4.27443C12.0018 4.27443 12.1708 4.26906 12.3586 4.25833C12.5465 4.2476 12.737 4.22881 12.9302 4.20198C13.1234 4.17515 13.3139 4.14832 13.5017 4.12148C13.6895 4.09465 13.8612 4.05977 14.0169 4.01684C13.8451 3.81291 13.6654 3.61972 13.4775 3.43726C13.2897 3.2548 13.0885 3.08039 12.8738 2.91403C12.8148 2.93549 12.7423 2.96501 12.6565 3.00258C12.5706 3.04014 12.4847 3.08844 12.3989 3.14747C12.313 3.2065 12.2459 3.2709 12.1976 3.34066C12.1493 3.41043 12.1198 3.48287 12.1091 3.558L12.1574 3.71095C12.0608 3.86658 11.9535 3.96317 11.8354 4.00074C11.7173 4.0383 11.5966 4.05977 11.4732 4.06514C11.3497 4.0705 11.2209 4.0705 11.0868 4.06514C10.9526 4.05977 10.8238 4.08392 10.7004 4.13758L10.5716 3.86389L10.6923 3.39701L10.5555 3.19577L11.9481 2.76108C11.8891 2.61082 11.7925 2.49813 11.6583 2.423C11.5242 2.34787 11.3766 2.3103 11.2156 2.3103V2.2298L11.6664 2.15736C11.1673 1.9105 10.6494 1.72267 10.1128 1.59388C9.57612 1.46508 9.02606 1.40069 8.46258 1.40069C7.9957 1.40069 7.53418 1.4463 7.07803 1.53753C6.62188 1.62876 6.18183 1.76024 5.75788 1.93197C5.33393 2.10369 4.9234 2.31835 4.52628 2.57594C4.12916 2.83353 3.76692 3.12332 3.43957 3.44531C3.5791 3.44531 3.68643 3.48019 3.76156 3.54996C3.83669 3.61972 3.90645 3.69753 3.97085 3.7834C4.03525 3.86926 4.10233 3.94707 4.17209 4.01684C4.24186 4.0866 4.33577 4.12417 4.45383 4.12953L4.58263 4.03294L4.56653 3.85584L4.83217 3.47751L4.62287 2.88183C4.64971 2.86573 4.68996 2.8389 4.74362 2.80133C4.79729 2.76377 4.8429 2.74499 4.88047 2.74499C5.04146 2.74499 5.16489 2.75303 5.25075 2.76913C5.33662 2.78523 5.41175 2.81475 5.47614 2.85768C5.54054 2.90061 5.59689 2.96233 5.64519 3.04282C5.69349 3.12332 5.76862 3.22528 5.87058 3.34871L6.16037 3.12332C6.21403 3.14479 6.2999 3.17967 6.41796 3.22797C6.53602 3.27627 6.65677 3.3353 6.78019 3.40506C6.90362 3.47482 7.00827 3.54727 7.09413 3.6224C7.18 3.69753 7.22561 3.7673 7.23098 3.83169C7.23098 3.91219 7.20146 3.97659 7.14243 4.02489C7.0834 4.07319 7.00559 4.11343 6.90899 4.14563C6.81239 4.17783 6.71311 4.20198 6.61115 4.21808C6.50919 4.23418 6.40723 4.25565 6.30526 4.28248C6.2033 4.30931 6.12549 4.33614 6.07182 4.36297C6.01816 4.38981 5.98596 4.43542 5.97522 4.49982L6.44211 4.65276C6.33478 4.74399 6.2194 4.82717 6.09597 4.9023C5.97254 4.97744 5.84375 5.0472 5.70958 5.1116L5.74178 5.24844L5.00121 5.53823V5.76362L4.94486 5.78777L4.98511 5.50603L4.95291 5.49798C4.91535 5.49798 4.89388 5.50603 4.88851 5.52213C4.88315 5.53823 4.88047 5.55701 4.88047 5.57848C4.88047 5.59995 4.88583 5.62141 4.89656 5.64288C4.9073 5.66434 4.90998 5.68044 4.90461 5.69118L4.79997 5.63483L4.81607 5.66703C4.81607 5.68313 4.82412 5.70727 4.84022 5.73947C4.85632 5.77167 4.87778 5.80119 4.90461 5.82802C4.93145 5.85485 4.95291 5.88169 4.96901 5.90852C4.98511 5.93535 4.99584 5.94877 5.00121 5.94877C5.00121 5.96487 4.99048 5.98096 4.96901 5.99706C4.94755 6.01316 4.92071 6.0239 4.88851 6.02926C4.85632 6.03463 4.83485 6.04268 4.82412 6.05341C4.81338 6.06415 4.81338 6.06683 4.82412 6.06146C4.89925 6.06146 4.91535 6.06683 4.87242 6.07756C4.82948 6.08829 4.7624 6.11513 4.67117 6.15806C4.57994 6.20099 4.49676 6.2627 4.42163 6.3432C4.3465 6.4237 4.30357 6.54176 4.29284 6.69739C4.29284 6.78862 4.29552 6.87716 4.30089 6.96303C4.30625 7.04889 4.30357 7.13744 4.29284 7.22867C4.21771 7.02474 4.10501 6.86911 3.95475 6.76179C3.80449 6.65446 3.62203 6.60079 3.40737 6.60079L3.06123 6.63299L3.23028 6.74569C3.13905 6.73495 3.04513 6.72422 2.94854 6.71349C2.85194 6.70275 2.75266 6.70007 2.6507 6.70544C2.54874 6.7108 2.45751 6.73227 2.37701 6.76984C2.29651 6.8074 2.21601 6.86375 2.13552 6.93888L2.08722 7.30112C2.08722 7.47284 2.12478 7.61237 2.19992 7.7197C2.27505 7.82703 2.40652 7.88338 2.59435 7.88874C2.75534 7.88874 2.91366 7.86459 3.06928 7.8163C3.22491 7.768 3.37785 7.71165 3.52812 7.64725C3.47982 7.76532 3.42615 7.87801 3.36712 7.98534C3.30809 8.09267 3.26516 8.21073 3.23833 8.33953L3.34297 8.38783C3.47177 8.30196 3.58983 8.28855 3.69716 8.34758C3.80449 8.40661 3.90913 8.49247 4.0111 8.60517C4.11306 8.71786 4.21771 8.83324 4.32504 8.9513C4.43237 9.06937 4.54774 9.15523 4.67117 9.20889L4.39748 9.35379L3.75351 8.99155C3.75887 9.00229 3.76424 9.02643 3.76961 9.064C3.77497 9.10157 3.77229 9.10962 3.76156 9.08815L3.47177 8.59712C3.30004 8.59175 3.11758 8.56492 2.92439 8.51662C2.7312 8.46832 2.53532 8.40392 2.33676 8.32343C2.1382 8.24293 1.95306 8.15438 1.78133 8.05779C1.6096 7.96119 1.45129 7.85923 1.3064 7.7519L1.25005 8.61322C1.25005 9.26793 1.3386 9.90654 1.51569 10.529C1.69278 11.1516 1.94232 11.7365 2.26431 12.2839C2.5863 12.8313 2.98074 13.3303 3.44762 13.7811C3.9145 14.2319 4.43237 14.6156 5.00121 14.9322C4.97438 14.8195 4.9717 14.7068 4.99316 14.5941C5.01463 14.4814 5.04146 14.3688 5.07366 14.2561C5.10586 14.1434 5.14074 14.0307 5.1783 13.918C5.21587 13.8053 5.23465 13.6899 5.23465 13.5718C5.23465 13.4001 5.20782 13.2203 5.15416 13.0325C5.10049 12.8447 5.03609 12.6542 4.96096 12.461C4.88583 12.2678 4.80265 12.0773 4.71142 11.8894C4.62019 11.7016 4.54774 11.5245 4.49408 11.3582C4.44041 11.1918 4.39748 11.0362 4.36528 10.8913C4.33309 10.7464 4.34918 10.6203 4.41358 10.5129L4.29284 10.4566C4.32504 10.3815 4.36797 10.309 4.42163 10.2393C4.4753 10.1695 4.53164 10.0997 4.59068 10.03C4.64971 9.9602 4.69532 9.88507 4.72752 9.80457C4.75972 9.72408 4.7785 9.64358 4.78387 9.56308C4.78387 9.50942 4.77314 9.45307 4.75167 9.39404C4.7302 9.33501 4.71142 9.27866 4.69532 9.22499L4.86437 9.26524C4.9556 9.05595 5.07902 8.91374 5.23465 8.83861C5.39028 8.76348 5.58616 8.72323 5.82228 8.71786C5.84911 8.71786 5.90546 8.7286 5.99132 8.75006C6.07719 8.77153 6.16842 8.80104 6.26501 8.83861C6.36161 8.87617 6.45284 8.90569 6.5387 8.92716C6.62457 8.94862 6.68896 8.97009 6.7319 8.99155C6.7319 9.02912 6.75336 9.05327 6.79629 9.064C6.83923 9.07473 6.86337 9.09352 6.86874 9.12035L6.85264 9.18475C6.86874 9.19011 6.90631 9.20889 6.96534 9.24109C7.02437 9.27329 7.08877 9.31354 7.15853 9.36184C7.22829 9.41014 7.29001 9.45307 7.34367 9.49063C7.39734 9.5282 7.4349 9.55772 7.45637 9.57918C7.55297 9.57918 7.68444 9.61138 7.8508 9.67578C8.01717 9.74018 8.19963 9.82067 8.39818 9.91727C8.59674 10.0139 8.79262 10.1292 8.98581 10.2634C9.17901 10.3976 9.36147 10.5317 9.53319 10.6659C9.70492 10.8001 9.8364 10.9342 9.92763 11.0684C10.0189 11.2025 10.0725 11.3206 10.0886 11.4226L9.81493 11.7124C9.8364 11.986 9.81761 12.1953 9.75858 12.3402C9.69955 12.4851 9.60832 12.6059 9.48489 12.7025C9.36147 12.7991 9.21925 12.8796 9.05826 12.944C8.89727 13.0084 8.72286 13.0996 8.53503 13.2176C8.53503 13.325 8.5082 13.4404 8.45453 13.5638C8.40087 13.6872 8.33379 13.8053 8.25329 13.918C8.17279 14.0307 8.0762 14.1246 7.9635 14.1997C7.8508 14.2748 7.73811 14.3124 7.62541 14.3124L7.28733 14.0548C7.29806 14.0655 7.29806 14.0843 7.28733 14.1112C7.27659 14.138 7.26318 14.1434 7.24708 14.1273C7.30074 14.2292 7.31416 14.3473 7.28733 14.4814C7.26049 14.6156 7.21488 14.7525 7.15048 14.892C7.08608 15.0315 7.01364 15.163 6.93314 15.2864C6.85264 15.4098 6.78019 15.5145 6.7158 15.6004C7.00559 15.6755 7.29538 15.7318 7.58516 15.7694C7.87495 15.807 8.16743 15.8257 8.46258 15.8257Z" fill="#7598B9"/>
</g>
<defs>
<clipPath id="clip0_274_622">
<rect width="16.4858" height="16.4858" fill="white" transform="translate(0.219727 0.370361)"/>
</clipPath>
</defs>
</svg>
