<svg width="33" height="33" viewBox="0 0 33 33" fill="none" xmlns="http://www.w3.org/2000/svg">
<path d="M6.17995 26.3008V14.2759C6.17995 13.8528 6.27481 13.452 6.46454 13.0735C6.65426 12.6949 6.91569 12.3831 7.24883 12.1382L15.2654 6.12575C15.733 5.76946 16.2675 5.59131 16.8687 5.59131C17.47 5.59131 18.0044 5.76946 18.472 6.12575L26.4886 12.1382C26.8227 12.3831 27.0845 12.6949 27.2743 13.0735C27.464 13.452 27.5584 13.8528 27.5575 14.2759V26.3008C27.5575 27.0357 27.2956 27.665 26.7719 28.1887C26.2481 28.7125 25.6193 28.9739 24.8853 28.973H20.877C20.4985 28.973 20.1814 28.8447 19.9257 28.5882C19.6701 28.3317 19.5418 28.0146 19.5409 27.6369V20.9564C19.5409 20.5779 19.4127 20.2608 19.1561 20.0051C18.8996 19.7495 18.5825 19.6212 18.2048 19.6203H15.5326C15.1541 19.6203 14.837 19.7486 14.5813 20.0051C14.3257 20.2617 14.1974 20.5788 14.1965 20.9564V27.6369C14.1965 28.0155 14.0683 28.333 13.8117 28.5896C13.5552 28.8461 13.2381 28.9739 12.8604 28.973H8.85214C8.11729 28.973 7.48843 28.7116 6.96557 28.1887C6.44271 27.6659 6.18084 27.0366 6.17995 26.3008Z" fill="white"/>
</svg>
