<svg width="21" height="21" viewBox="0 0 21 21" fill="none" xmlns="http://www.w3.org/2000/svg">
<path d="M9.70392 3.4134V7.2934C9.70392 7.61467 9.64048 7.93277 9.51723 8.22946C9.39399 8.52615 9.21336 8.79558 8.98573 9.02228C8.75809 9.24899 8.48793 9.42851 8.19074 9.55054C7.89355 9.67257 7.57519 9.73472 7.25392 9.7334H3.39392C3.07352 9.73534 2.75603 9.67257 2.46047 9.54885C2.16492 9.42513 1.89739 9.24301 1.67392 9.0134C1.44703 8.7884 1.26736 8.52036 1.14544 8.22501C1.02352 7.92965 0.961807 7.61292 0.96392 7.2934V3.4234C0.963914 2.778 1.21961 2.15889 1.67504 1.70158C2.13047 1.24428 2.74853 0.986044 3.39392 0.983398H7.26392C7.58398 0.983706 7.90081 1.0475 8.19605 1.17109C8.49129 1.29468 8.75908 1.47561 8.98392 1.7034C9.21141 1.92638 9.39223 2.19242 9.51585 2.48601C9.63946 2.77959 9.7034 3.09485 9.70392 3.4134ZM20.4539 3.4234V7.2934C20.4487 7.9372 20.1914 8.5533 19.7371 9.00949C19.2827 9.46567 18.6677 9.72557 18.0239 9.7334H14.1439C13.4971 9.72944 12.877 9.47495 12.4139 9.0234C12.1876 8.79589 12.0084 8.52597 11.8866 8.22912C11.7648 7.93226 11.7027 7.61428 11.7039 7.2934V3.4234C11.7031 3.10317 11.7664 2.78601 11.8901 2.49062C12.0137 2.19522 12.1952 1.92756 12.4239 1.7034C12.6488 1.47561 12.9165 1.29468 13.2118 1.17109C13.507 1.0475 13.8239 0.983706 14.1439 0.983398H18.0139C18.6594 0.988626 19.277 1.24737 19.7335 1.70384C20.1899 2.1603 20.4487 2.77789 20.4539 3.4234ZM20.4539 14.1734V18.0434C20.4487 18.6872 20.1914 19.3033 19.7371 19.7595C19.2827 20.2157 18.6677 20.4756 18.0239 20.4834H14.1439C13.493 20.49 12.8652 20.2425 12.3939 19.7934C12.1667 19.5665 11.987 19.2968 11.8651 18.9998C11.7432 18.7027 11.6816 18.3844 11.6839 18.0634V14.1934C11.6831 13.8732 11.7464 13.556 11.8701 13.2606C11.9937 12.9652 12.1752 12.6976 12.4039 12.4734C12.6288 12.2456 12.8966 12.0647 13.1918 11.9411C13.487 11.8175 13.8039 11.7537 14.1239 11.7534H17.9939C18.6394 11.7586 19.257 12.0174 19.7135 12.4738C20.1699 12.9303 20.4287 13.5479 20.4339 14.1934L20.4539 14.1734ZM9.70392 14.1834V18.0534C9.69605 18.6989 9.43477 19.3154 8.97644 19.77C8.51811 20.2246 7.89945 20.4808 7.25392 20.4834H3.39392C3.07444 20.4847 2.75785 20.4228 2.46244 20.3011C2.16702 20.1795 1.89861 20.0005 1.6727 19.7746C1.44679 19.5487 1.26785 19.2803 1.1462 18.9849C1.02455 18.6895 0.962597 18.3729 0.96392 18.0534V14.1834C0.966496 13.5379 1.22271 12.9192 1.6773 12.4609C2.13189 12.0025 2.74843 11.7413 3.39392 11.7334H7.26392C7.91212 11.74 8.53241 11.9982 8.99392 12.4534C9.45001 12.9135 9.7053 13.5355 9.70392 14.1834Z" fill="#203E5B"/>
</svg>
