<svg width="27" height="24" viewBox="0 0 27 24" fill="none" xmlns="http://www.w3.org/2000/svg">
<path fill-rule="evenodd" clip-rule="evenodd" d="M16.7204 3.41741C16.2854 3.038 15.1548 2.71798 13.6505 3.66461C8.8446 6.69227 4.65762 12.1536 3.24151 14.133C3.13167 14.2865 2.99267 14.4169 2.83244 14.5167C2.67222 14.6165 2.49391 14.6837 2.30769 14.7146C2.12148 14.7455 1.93101 14.7394 1.74716 14.6966C1.5633 14.6539 1.38967 14.5753 1.23616 14.4655C1.08266 14.3557 0.952297 14.2167 0.852513 14.0564C0.75273 13.8962 0.685482 13.7179 0.65461 13.5317C0.623737 13.3455 0.629845 13.155 0.672583 12.9712C0.715321 12.7873 0.793854 12.6137 0.903697 12.4602C2.34088 10.4539 6.80189 4.58057 12.1195 1.23098C14.4209 -0.217698 16.9886 -0.156379 18.6059 1.24631C19.4127 1.94574 19.9186 2.95177 19.9243 4.09385C19.932 5.22635 19.4529 6.34926 18.5791 7.34763C15.8446 10.4749 12.2325 14.7156 10.7149 16.7851C10.5156 17.0572 10.5022 17.2642 10.5194 17.383C10.5386 17.5171 10.6095 17.6417 10.7302 17.7337C10.8126 17.7917 10.9056 17.8329 11.0039 17.8549C11.1022 17.8769 11.2039 17.8794 11.3031 17.862C11.5714 17.8295 11.993 17.6819 12.5065 17.2124C12.9396 16.8139 13.3899 16.3885 13.8537 15.9535C15.2813 14.6102 16.8238 13.1558 18.3683 12.0194C19.9741 10.839 21.8521 10.5113 23.2758 11.3813C23.9868 11.8163 24.4869 12.5119 24.6594 13.3435C24.8318 14.1675 24.6689 15.026 24.2531 15.8155C23.8066 16.6625 23.4215 17.2718 23.0746 17.8199L23.0478 17.864C22.7155 18.3734 22.4054 18.8971 22.1184 19.4334C22.0542 19.5549 22.0168 19.6888 22.0089 19.826C22.0009 19.9632 22.0226 20.1005 22.0724 20.2286C22.1184 20.3436 22.1625 20.3992 22.1874 20.4221C22.3637 20.4356 22.517 20.3915 22.7604 20.2037C23.1014 19.9373 23.4828 19.487 24.0557 18.7359C24.2872 18.433 24.6296 18.2344 25.0074 18.1839C25.3853 18.1334 25.7678 18.2351 26.0707 18.4666C26.3736 18.6981 26.5721 19.0405 26.6226 19.4183C26.6731 19.7962 26.5714 20.1786 26.3399 20.4815C25.7938 21.1963 25.2016 21.9456 24.5233 22.4744C23.7721 23.057 22.8619 23.4096 21.7562 23.2658C20.5433 23.1087 19.748 22.1736 19.3974 21.2787C19.1969 20.7677 19.1085 20.2195 19.1383 19.6714C19.168 19.1233 19.3152 18.5879 19.5698 18.1016C19.9339 17.4041 20.2788 16.8618 20.6065 16.3463L20.6487 16.2811C20.9859 15.7465 21.3193 15.2157 21.7103 14.476C21.8731 14.1656 21.8578 13.9874 21.8463 13.9318C21.8432 13.9113 21.8353 13.8918 21.8233 13.8749C21.8113 13.8579 21.7956 13.8439 21.7773 13.8341C21.6949 13.7824 21.1124 13.5697 20.0719 14.3362C18.6807 15.3575 17.3259 16.6357 15.9328 17.9464C15.4448 18.4088 14.9498 18.8706 14.4477 19.3318C12.679 20.9529 10.5251 21.1695 9.0094 20.0351C7.5339 18.9313 7.12957 16.8158 8.3962 15.0873C10.0001 12.899 13.6984 8.56252 16.4157 5.45629C16.935 4.86226 17.0519 4.39278 17.05 4.11109C17.0498 3.97847 17.0203 3.84753 16.9637 3.72762C16.907 3.60771 16.8246 3.50178 16.7223 3.41741M22.2085 20.4394L22.2027 20.4356C22.2066 20.4356 22.2085 20.4368 22.2085 20.4394Z" fill="#203E5B"/>
</svg>
