<svg width="38" height="39" viewBox="0 0 38 39" fill="none" xmlns="http://www.w3.org/2000/svg">
<path d="M27.8492 6.23778C28.2715 5.81564 28.7729 5.48081 29.3246 5.25241C29.8763 5.02401 30.4675 4.90651 31.0647 4.90662C31.6618 4.90673 32.253 5.02445 32.8046 5.25305C33.3562 5.48166 33.8574 5.81667 34.2796 6.23897C34.7017 6.66127 35.0365 7.16258 35.2649 7.71428C35.4933 8.26598 35.6108 8.85726 35.6107 9.45437C35.6106 10.0515 35.4929 10.6427 35.2643 11.1943C35.0357 11.746 34.7007 12.2471 34.2784 12.6693L28.0084 18.9393C27.3073 19.6404 26.4418 20.1548 25.4909 20.4355L22.0091 21.4615C21.6001 21.5818 21.1662 21.5898 20.7531 21.4847C20.3399 21.3795 19.9626 21.165 19.6609 20.8638C19.3592 20.5626 19.1441 20.1857 19.0383 19.7726C18.9324 19.3596 18.9397 18.9258 19.0594 18.5165L20.0806 15.0324C20.3616 14.0784 20.8778 13.2103 21.5816 12.5078L27.8492 6.23778ZM32.5992 7.91928C32.3977 7.71757 32.1583 7.55755 31.8948 7.44837C31.6314 7.33919 31.349 7.283 31.0638 7.283C30.7786 7.283 30.4962 7.33919 30.2328 7.44837C29.9693 7.55755 29.73 7.71757 29.5284 7.91928L23.2584 14.1869C22.837 14.6089 22.5283 15.1299 22.3606 15.7022L21.3394 19.1839L24.8164 18.1579C25.3864 17.9893 25.9089 17.6805 26.3269 17.2602L32.5969 10.9902C32.7986 10.7886 32.9586 10.5492 33.0678 10.2857C33.177 10.0223 33.2332 9.7399 33.2332 9.45472C33.2332 9.16954 33.177 8.88715 33.0678 8.62369C32.9586 8.36024 32.801 8.12087 32.5992 7.91928ZM23.446 7.28278H8.3125C6.73778 7.28278 5.22755 7.90834 4.11405 9.02184C3.00056 10.1353 2.375 11.6456 2.375 13.2203V25.0953C2.375 26.67 3.00056 28.1802 4.11405 29.2937C5.22755 30.4072 6.73778 31.0328 8.3125 31.0328H29.6875C31.2622 31.0328 32.7724 30.4072 33.8859 29.2937C34.9994 28.1802 35.625 26.67 35.625 25.0953V14.6809L33.25 17.0559V25.0953C33.25 26.0401 32.8747 26.9463 32.2066 27.6144C31.5385 28.2825 30.6323 28.6578 29.6875 28.6578H8.3125C7.36767 28.6578 6.46153 28.2825 5.79343 27.6144C5.12533 26.9463 4.75 26.0401 4.75 25.0953V17.4288C6.06813 16.3529 7.57625 15.3768 8.90388 14.8852C9.64013 14.6097 10.2268 14.5218 10.6495 14.5717C11.0224 14.6168 11.2789 14.7617 11.4808 15.0657C11.78 15.5145 11.78 15.8732 11.5876 16.341C11.3549 16.911 10.8751 17.5214 10.2268 18.3123L10.146 18.4144C9.56887 19.115 8.86825 19.97 8.4455 20.8915C7.96812 21.927 7.79238 23.1478 8.43837 24.4398C9.43587 26.4395 11.6874 26.6533 13.4615 26.3113C15.4181 25.9061 17.2189 24.9522 18.6532 23.561C18.7637 23.4506 18.8512 23.3196 18.911 23.1753C18.9707 23.031 19.0015 22.8764 19.0015 22.7203C19.0015 22.5641 18.9707 22.4095 18.911 22.2653C18.8512 22.121 18.7637 21.9899 18.6532 21.8795C18.5428 21.7691 18.4118 21.6815 18.2675 21.6218C18.1233 21.562 17.9686 21.5313 17.8125 21.5313C17.6564 21.5313 17.5017 21.562 17.3575 21.6218C17.2132 21.6815 17.0822 21.7691 16.9718 21.8795C15.9552 22.8984 14.4068 23.7083 13.0103 23.979C11.5378 24.264 10.8158 23.884 10.564 23.3758C10.317 22.8865 10.3431 22.4448 10.602 21.8843C10.8918 21.2525 11.4142 20.6137 12.065 19.818L12.0888 19.7895C12.6778 19.0723 13.3974 18.1912 13.7869 17.2412C14.2239 16.1724 14.2642 14.9612 13.4567 13.7499C13.1771 13.3207 12.8047 12.9598 12.3669 12.6938C11.9291 12.4279 11.4371 12.2636 10.9274 12.2133C9.9845 12.1017 8.99412 12.3178 8.07737 12.6574C6.9635 13.0707 5.81638 13.7214 4.75 14.4577V13.2203C4.75 12.7524 4.84215 12.2892 5.02118 11.857C5.20021 11.4248 5.46262 11.032 5.79343 10.7012C6.12424 10.3704 6.51697 10.108 6.94919 9.92896C7.38141 9.74993 7.84467 9.65778 8.3125 9.65778H21.071L23.446 7.28278Z" fill="white"/>
</svg>
