<svg width="34" height="34" viewBox="0 0 34 34" fill="none" xmlns="http://www.w3.org/2000/svg">
<path d="M22.5 4.28235C22.8368 4.28239 23.1619 4.40604 23.4135 4.62983C23.6652 4.85363 23.826 5.162 23.8654 5.49647L23.875 5.65735V7.03235H26.625C27.3188 7.03213 27.9871 7.29416 28.4958 7.76591C29.0045 8.23766 29.3161 8.88426 29.3681 9.5761L29.375 9.78235V26.2823C29.3752 26.9761 29.1132 27.6444 28.6415 28.1531C28.1697 28.6618 27.5231 28.9734 26.8313 29.0255L26.625 29.0323H7.37502C6.68123 29.0326 6.01299 28.7705 5.50427 28.2988C4.99555 27.827 4.68393 27.1804 4.6319 26.4886L4.62502 26.2823V9.78235C4.6248 9.08856 4.88683 8.42032 5.35858 7.9116C5.83033 7.40287 6.47693 7.09126 7.16877 7.03922L7.37502 7.03235H10.125V5.65735C10.1254 5.30689 10.2596 4.9698 10.5002 4.71497C10.7408 4.46013 11.0696 4.30678 11.4194 4.28624C11.7693 4.2657 12.1138 4.37953 12.3825 4.60446C12.6513 4.8294 12.824 5.14847 12.8654 5.49647L12.875 5.65735V7.03235H21.125V5.65735C21.125 5.29268 21.2699 4.94294 21.5278 4.68508C21.7856 4.42721 22.1353 4.28235 22.5 4.28235ZM26.625 16.6573H7.37502V26.2823H26.625V16.6573ZM26.625 9.78235H7.37502V13.9073H26.625V9.78235Z" fill="white"/>
</svg>
